<svg fill="none" xmlns="http://www.w3.org/2000/svg" viewBox="0 0 800 600"><path d="M376.8 455.55c.2-.15.3-.4.26-.68-.05-.35-.17-.44-.58-.44-.65 0-.97.65-.54 1.08.33.33.45.34.86.04ZM384.85 433.31c.35-.73.7-1.14 1.37-1.58l.89-.6.12-1.23c.14-1.36-.09-2.14-.88-3.09-.83-.98-.6-1.21 1.51-1.65 1.04-.22 1.41-.38 1.72-.76.35-.44.46-.47 1.2-.36 1.03.15 1.4-.16 1.4-1.14 0-.4.12-.78.28-.91.15-.13.45-.55.67-.94.43-.77.66-.8 1.9-.3.55.23.66.2 1.59-.3.55-.29 1.04-.64 1.1-.77a3.2 3.2 0 0 0-.21-1.22c-.25-.8-.43-1.04-1.02-1.37-.58-.33-.7-.5-.7-.94 0-.3.12-.75.26-1 .14-.24.26-.83.26-1.3.01-.78.07-.9.61-1.22.33-.2.76-.64.95-1l.34-.63-.63-.52c-1.53-1.26-1.49-1.2-1.37-2.21l.15-1.37c.04-.34-.12-.55-.71-.95-.66-.45-.77-.61-.77-1.15 0-.47-.14-.78-.56-1.2-.32-.31-.7-.78-.86-1.03-.58-.94-2.65-2.6-4.2-3.37-.85-.42-1.6-.84-1.65-.93-.2-.32.65-.4 4.35-.35 3.7.04 3.84.03 4.24-.35.54-.5.69-.5 1.26.15.27.3.59.54.72.54.31 0 .76-.5.92-1.04.07-.23.32-.5.56-.62.37-.17.5-.13.89.23.25.23.53.72.63 1.09.36 1.35 1.41.99 1.77-.62.24-1.08.45-1.33 1.44-1.7 1-.37 1.15-.35 1.42.2.13.27.56.7.96.95.48.3.83.71 1.06 1.25.56 1.32 1.5.97 1.3-.49-.08-.55 0-.83.4-1.41.48-.68.5-.77.28-1.47-.2-.67-.19-.78.1-.99.44-.32.74-.3 1.44.14.7.43 1.22.27 1.4-.44.06-.24.52-.77 1.03-1.18 1.1-.87 1.42-.77 1.42.47 0 .49.17 1.13.45 1.69l.46.9.97-.04c.81-.02 1.1.06 1.7.47.45.3.99.51 1.4.52.77.03.9-.24.93-1.87.01-.84.1-1.08.56-1.58.3-.33.54-.63.54-.68 0-.28-.94-1.85-1.33-2.21-.26-.24-.47-.54-.47-.66 0-.32 1.06-.7 1.97-.7.76 0 .83-.05 1.13-.69.38-.8.75-1 1.19-.6.17.16.6.39.93.5.34.12.85.4 1.13.63.28.24.66.42.85.42.34 0 .8-.6.63-.87-.04-.07-.25-.77-.46-1.54-.36-1.35-.36-1.42-.06-1.76.25-.27.46-.32.95-.24.35.07.92.13 1.26.16.63.03.63.03.66-.78l.04-1c.01-.1.3-.28.63-.4s.67-.38.76-.56c.23-.49 2.52-2.9 2.76-2.9.12 0 .19.6.19 1.62 0 1.82.42 3.26 1.15 3.95.24.22.49.62.56.88.18.72.43.93 1.14.94 1.12 0 1.62.35 2.15 1.43.64 1.31 1.02 1.36 2.08.28.69-.71.9-.82 1.53-.82.56 0 .98-.16 1.66-.63.5-.35 1.03-.63 1.16-.63.14 0 .6.25 1.02.55.67.5.86.55 1.62.46.47-.05 1.08-.2 1.35-.34.47-.22.48-.28.42-1.4-.07-1.41-.2-1.67-1.11-2.24-.78-.5-.85-.78-.44-1.78.2-.45.24-.93.17-1.51-.1-.74-.05-.96.35-1.55.26-.38.47-.84.47-1.02 0-.36-.5-.7-1.05-.7-.57 0-1.27-.69-1.48-1.46-.16-.6-.31-.77-.85-.99a15.6 15.6 0 0 1-1.3-.6 7.2 7.2 0 0 0-3.44-.65c-1.23.2-1.08-.28.58-1.88a7.39 7.39 0 0 1 1.81-1.43c.38 0 .7-.52.7-1.13 0-.7.43-.95 1.3-.72 1.25.34 1.6-.08 1.03-1.2-.47-.92-.45-1.41.07-2.06.4-.52.44-.53 1.12-.3.52.16.83.17 1.2.03.28-.1.9-.2 1.39-.2.48 0 .92-.07.98-.17.06-.1-.1-.56-.35-1.03a4.33 4.33 0 0 1-.45-1.1c0-.14-.34-.56-.75-.93l-.75-.68.36-.6c.3-.52.47-.62 1.2-.7.75-.1 1.18-.36 1.2-.73 0-.06-.17-.32-.37-.57-.42-.54-.44-.95-.09-1.57.14-.25.26-.74.27-1.1 0-.38.15-.84.36-1.08l.35-.43.6.66c.86.98 1.78 1.36 3.44 1.44l1.42.06.35-.63c.56-1.02 1.24-1.62 2.07-1.83.75-.19 1.66-1 1.66-1.47 0-.28-.82-1.04-1.47-1.36-.46-.23-1.23-1.62-1.23-2.23 0-.38-.32-.57-1.57-.9a5.37 5.37 0 0 0-2.2-.2c-1.01.12-1.08.1-1.08-.25 0-.54.69-2.3 1-2.55.2-.17.24-.44.15-1.1l-.12-.87 1-.45c1.1-.5 1.36-.87.89-1.25-1.49-1.2-1.5-1.22-1.35-1.6.07-.21.14-1 .14-1.73 0-1.34 0-1.35.45-1.3 1.81.22 2.92-.13 3.13-.99.07-.27.36-.8.65-1.17.8-1 .77-1.41-.13-1.85-.4-.2-.96-.59-1.22-.87-.44-.48-.55-.5-1.68-.45l-1.2.06-.16-1.02c-.13-.9-.1-1.09.23-1.56.48-.66.48-1.01 0-1.34-.41-.3-.95-1.66-.77-1.95.06-.1.46-.34.89-.53.7-.3.8-.44 1.05-1.31.16-.53.29-1.06.29-1.16 0-.37-1.4-.92-2.33-.92-1.02 0-1.37-.37-1.19-1.23.07-.32-.02-.66-.26-1.02-.46-.7-.45-.92.1-1.56.48-.58.6-1.7.23-2.09-.12-.12-.53-.21-.92-.21-.95 0-1.3-.23-1.64-1.1-.23-.57-.25-.87-.11-1.39.1-.36.18-.71.18-.78 0-.3-.6-.69-1.07-.69-.65 0-1.17-.63-1.33-1.6-.1-.59-.22-.76-.79-1.03a2.1 2.1 0 0 1-.99-1c-.17-.38-.4-.68-.49-.68-.1 0-.54-.36-.99-.8a28.25 28.25 0 0 0-5.7-3.8c-.93-.44-1.4-.76-1.4-.97 0-.2.56-.6 1.66-1.16 2.87-1.5 6.3-4.08 6.98-5.28.15-.27.55-.62.88-.8.73-.36.9-.6.9-1.3 0-.66.65-1.35 1.26-1.35.26 0 .63-.11.82-.25.31-.23.32-.33.12-1.14-.4-1.5.23-2.56 1.5-2.56 1.36 0 1.72-1.05.8-2.34-.44-.62-.45-1.04-.06-1.47.18-.2.29-.6.27-1.02-.04-1 .3-1.37 1.21-1.32.95.06 2.36-.54 2.35-.99 0-.56-.38-1.75-.66-2.07-.15-.17-.5-.35-.79-.42-.29-.06-.6-.24-.68-.4-.22-.4.1-1.48.63-2.03.52-.55.52-.6.07-1.2-.31-.43-.34-.64-.22-1.57l.13-1.08 1.2.06c1.14.06 1.2.04 1.79-.55.33-.33.87-.71 1.19-.84.75-.31.77-.88.06-1.78-.28-.37-.6-.91-.69-1.2-.24-.78-.97-1.1-2.43-1.04l-1.22.04.05-1.4a6.19 6.19 0 0 0-.1-1.69c-.12-.23.05-.44.77-.96.57-.41.9-.78.87-.96-.03-.16-.53-.51-1.1-.79l-1.06-.5.12-.95c.1-.8.06-.99-.25-1.27-.43-.4-1.15-2.2-.98-2.48.08-.12.52-.14 1.2-.07a5.6 5.6 0 0 0 2.18-.19c1.34-.36 1.49-.47 1.64-1.2.22-.99.73-1.78 1.34-2.08.33-.16.76-.5.96-.78.31-.42.33-.55.14-.9a2.27 2.27 0 0 0-1.64-1.03c-.47 0-1.48-1.04-2-2.04-.32-.62-.42-.68-.84-.57-.27.06-.93.18-1.47.25-1.18.15-1.63.38-2.68 1.34l-.8.72-.32-.41c-.2-.25-.34-.7-.34-1.15 0-.44-.14-.97-.35-1.28-.35-.53-.35-.53.04-1.22.48-.86.3-1.26-.65-1.41-.73-.12-1.29-.54-1.43-1.08-.1-.36.2-.75.79-1.07.19-.1.4-.4.45-.67.07-.27.31-.83.55-1.24.47-.82.45-.86-.47-1.03-.35-.07-.97-.2-1.39-.31a2.1 2.1 0 0 0-1.3 0c-.74.25-.96.14-1.43-.7l-.4-.7.37-.72c.64-1.25.38-1.72-.8-1.45-.87.2-1.35-.04-1.35-.65 0-.65-.28-1.1-.77-1.21-.52-.13-3.18-2.72-3.18-3.09 0-.2.26-.26 1.21-.27 1.35 0 2.53-.28 3.97-.93.87-.39 1-.53 1.35-1.41.37-.93.44-1 1.24-1.19.46-.11.93-.26 1.03-.32.33-.2.2-.9-.27-1.55-.4-.53-.45-.74-.36-1.46.07-.57.02-1.06-.17-1.5-.44-1.07-.36-1.46.4-1.94.96-.6 1.07-.8 1.22-1.96.16-1.27.02-1.46-1.29-1.84-1.13-.33-1.4-.28-2.32.45-.37.3-.77.53-.89.53s-.59-.28-1.04-.63c-.64-.49-.99-.63-1.6-.63-.67 0-.84-.09-1.51-.82-.61-.66-.86-.8-1.27-.76-.4.04-.6.24-.97.95-.52 1.02-1.24 1.53-2.17 1.53-.7 0-.93.19-1.14.9-.07.25-.36.7-.64 1-.76.8-1.07 1.87-1.07 3.7 0 1.17-.06 1.6-.23 1.6-.27 0-2.45-2.2-2.9-2.93-.16-.27-.4-.5-.52-.5-.55 0-.73-.33-.69-1.23.04-.84 0-.92-.42-1.02-.29-.07-.62-.01-.9.17-.58.39-1.23.37-1.6-.04-.28-.31-.28-.41 0-1.48.5-1.97.5-2.27.12-2.48-.28-.14-.49-.1-.97.23-.33.23-.81.48-1.06.56-.25.07-.67.29-.94.48-.65.46-1.08.36-1.3-.3-.32-.95-.44-1.04-1.23-.94-.85.12-1.92-.26-1.92-.67 0-.15.23-.53.51-.86a4.81 4.81 0 0 0 1.1-1.96c0-.12-.17-.42-.4-.65-.32-.34-.42-.72-.5-1.84-.13-1.76-.3-2.01-1.21-1.77-.37.1-.94.39-1.27.64-.53.4-.72.44-1.56.34l-.95-.11-.56 1.15c-.3.64-.55 1.44-.55 1.8 0 .34-.09.67-.2.74-.32.2-1.95-1.04-2.1-1.61-.22-.78-.65-.98-1.32-.6-1.16.67-1.96.25-1.6-.84.19-.56.16-.71-.28-1.45-.35-.61-.45-.97-.37-1.37.28-1.4-.8-1.66-1.43-.34-.28.57-.58.9-1.05 1.13-.43.2-.73.5-.85.85-.21.6-.3.62-1.39.3-.92-.28-1.2-.61-1.37-1.59-.15-.88-.8-1.7-1.23-1.53-.16.06-.38.34-.48.61-.33.9-.57 1.27-.96 1.44-.61.26-1 .07-1.38-.7-.5-.96-.8-1.03-1.5-.35-.31.3-.65.56-.74.56-.09 0-.38-.21-.65-.47-.4-.38-.6-.45-1-.34-.56.15-6.96.12-7.36-.03-.47-.19-.23-.39 1.5-1.24 1.56-.76 1.98-1.09 3.64-2.76 1.72-1.74 1.89-1.97 1.98-2.7.08-.73.17-.85.88-1.24.72-.4.77-.48.67-1-.06-.3-.16-.94-.22-1.41-.12-.92-.15-.87 1.46-2.18l.53-.44-.3-.65c-.18-.36-.6-.82-.95-1.03-.59-.34-.63-.43-.6-1.2.01-.49-.1-1.08-.27-1.41-.48-.93-.39-1.39.39-1.9.72-.48 1.42-1.86 1.22-2.39a4.8 4.8 0 0 0-2.13-1.34c-.18 0-.62.12-.97.27-.77.32-.91.25-1.75-.85-.46-.6-.65-1.05-.65-1.47 0-.87-.37-1.17-1.27-1.05-.63.08-.8.03-1.3-.44-.42-.38-.9-.59-1.75-.75-1.2-.24-1.97-.6-1.97-.94 0-.11.24-.5.53-.87.85-1.08.96-1.68.74-4-.01-.07-.46-.42-1-.77-.74-.5-1.04-.84-1.27-1.44-.6-1.57-1.5-1.74-2.34-.46-.42.62-1.77 1.45-2.38 1.45-.31 0-.58.48-.85 1.51-.35 1.37-.33 2.05.1 2.9.68 1.33.54 1.47-1.6 1.63a4 4 0 0 0-1.86.45c-.58.4-1.18.43-1.66.06-.73-.55-1.36-.14-1.36.91 0 .34-.3.78-1.06 1.54a6.12 6.12 0 0 1-1.25 1.06c-.1 0-.4-.19-.68-.42-.8-.67-1.2-.72-2.4-.28-.59.21-1.15.49-1.25.61-.13.15-.11.59.05 1.37.2 1.04.3 1.2.98 1.66.95.63.99 1.13.14 2.06-.5.55-.63.86-.67 1.57-.05.79-.12.92-.6 1.14-.82.38-1.7 1.3-1.7 1.77 0 .3.18.53.55.73 1.14.63 1.37.9 1.49 1.77.1.7.04.97-.35 1.64-.26.43-.42.9-.37 1.05.06.14.46.42.9.6.83.36 1.12.82.92 1.46-.19.58.04 1.17.53 1.4.25.1.56.46.7.79.45 1.07 2.67 2.96 4.54 3.86 1.63.78 2.02 1.04 1.8 1.25-.26.27-1.92.37-4.6.26-2.64-.1-3.03-.07-3.56.21l-.6.32-.62-.54c-.53-.46-.68-.51-1.04-.35-.23.1-.56.47-.72.8-.47 1.01-1.3.75-1.73-.54-.11-.34-.36-.67-.54-.73-.39-.12-1.05.23-1.16.63l-.28 1.05c-.16.63-.31.82-.81 1.03-.72.3-1.53.34-1.53.07 0-.1-.32-.53-.71-.96a3.73 3.73 0 0 1-.83-1.34c-.17-.82-.68-1.22-1.25-.96-.4.19-.45.3-.42 1.19.03.82-.04 1.06-.45 1.55-.42.5-.47.68-.37 1.33.14.92-.19 1.15-1.02.71-.73-.37-1.28-.26-1.56.32-.28.6-1.05 1.22-1.5 1.22-.21 0-.37-.17-.44-.5l-.25-1.12-.26-1.13c-.11-.48-.14-.5-.93-.38-.76.11-.86.08-1.48-.5-.64-.6-1.7-1.4-1.88-1.4-.16 0-.74 1.73-.84 2.52-.09.73-.15.83-.72 1-.94.31-1.06.64-.52 1.45 1 1.53 1.41 2.22 1.41 2.4 0 .3-.84.54-1.44.42-.46-.1-.66-.01-1.17.49l-.62.6-.58-.42a6.17 6.17 0 0 1-1-.92c-.46-.57-1.16-.8-1.65-.53-.5.27-.6.78-.29 1.54.36.85.36 1.77 0 2.13-.34.34-.3.34-1.17.08-.84-.25-1.24 0-1.24.75 0 .5-.4 1.07-.75 1.07-.1 0-.7.45-1.31 1-1.28 1.11-1.83 1.28-1.65.49.3-1.35.34-3.12.07-3.78-.15-.37-.34-.92-.43-1.21-.14-.46-.27-.55-.83-.6-.76-.06-1.21-.55-1.21-1.32 0-.8-.32-1.4-.73-1.4-.2 0-.7.15-1.12.35-.85.42-1.2.44-1.84.15-.38-.18-.56-.16-.98.09-.85.5-1.3.39-2.05-.5l-.67-.82H320c-1.5 0-1.56.05-1.8 1.44-.19 1.02-.15 1.2.38 2.02.56.85.55 1.3-.01 1.97-.3.34-.45.75-.45 1.16 0 .49-.17.8-.81 1.48-.44.48-.8 1-.8 1.16 0 .17.36.48.88.74 1.05.54 1.14.66 1.14 1.55 0 .6.11.78.92 1.47.95.83 1.47 1.05 3.2 1.4.57.1 1.08.28 1.15.38.17.28-.36.74-1.63 1.4-.66.33-1.38.85-1.61 1.14l-.43.54-.74-.3c-.58-.22-.83-.25-1.12-.1-.33.18-.36.3-.25 1.32.16 1.52-.08 1.74-1.33 1.2a5.5 5.5 0 0 0-1.1-.37c-.11 0-.45-.2-.74-.45-1.37-1.16-2.67.24-1.54 1.65a6 6 0 0 1 .75 1.53c.4 1.24.24 1.58-.78 1.58-.85 0-1.1.26-1.1 1.18 0 .54-.14.95-.53 1.49-.3.41-.63.75-.73.75-.1 0-.4-.47-.67-1.04-.38-.8-.65-1.1-1.19-1.37a2.9 2.9 0 0 1-1.05-.94c-.46-.8-.95-.8-1.2 0-.25.74-1 1.11-1.86.93-1.28-.28-3.33 0-3.2.45.03.14.12.59.18 1 .07.4.34 1 .6 1.36.76.98.55 2.2-.42 2.52-.45.15-.01.63.68.74.46.07.87.3 1.17.64.3.33.84.63 1.47.82.55.16 1 .36 1 .45 0 .4-.25.75-.8 1.09-.32.2-.7.6-.82.9-.23.56-.23.56-1.33.44-.92-.1-1.15-.07-1.36.19-.22.26-.19.42.26 1.25l.51.94-.5 1.02c-.27.55-.6 1-.75 1-.14 0-.7-.31-1.23-.71-1.13-.84-1.47-.88-1.97-.26-.26.33-.68.52-1.53.7-1.08.23-1.21.22-1.73-.1-.31-.19-.7-.3-.84-.24-.79.3-.32 1.52.58 1.52.78 0 1.63 1.1 1.63 2.1 0 .83.08.92 1.24 1.31 1.41.48 1.4 1.1-.03 1.82l-.7.36.06 1.11.06 1.12-.54-.04c-.3-.01-.8-.08-1.1-.15-.44-.1-.7-.02-1.13.3-.5.36-.65.39-1.25.23-.85-.23-1.4-.05-1.67.55-.27.59.14 1.09 1.03 1.25.46.1.74.3 1.09.83.25.38.6.75.78.8.65.2.8.59.43 1.12-.18.28-.42.74-.52 1.04-.15.45-.32.57-1.08.74-.5.12-1.18.22-1.53.23-1.48.04-2 1.35-.68 1.72.72.2 1.52.86 1.69 1.4.27.86-.6 1.75-1.73 1.75-.57 0-1.25.54-1.25.99 0 .14.3.46.67.7 1.06.66 1.22.92.9 1.43-.16.23-.55.5-.88.59-.9.26-1.08.94-.43 1.7l.5.6-.68.57c-.59.5-.66.63-.54 1.08.17.67.16 1.17-.07 2.5-.5 2.95-.76 5.37-.96 8.84-.21 3.66-.36 4.4-.81 4.12-.1-.06-.44-1.18-.76-2.5a29.58 29.58 0 0 0-2.5-6.94c-.5-1.03-.91-1.97-.91-2.09 0-.12-.25-.52-.54-.9-.3-.37-.54-.78-.54-.92 0-.13-.32-.44-.72-.7-.58-.36-.72-.55-.72-1 0-.84-.27-1.18-1.05-1.3-.95-.15-1.18-.48-1.05-1.46.15-1.08-.15-1.38-1.22-1.24-.69.1-.85.05-1.26-.37-.45-.45-.47-.54-.36-1.63.15-1.4.03-1.5-1.53-1.17-1.04.22-1.07.21-1.92-.31l-.87-.53.07-1.53c.07-1.7-.08-1.92-.98-1.58-.25.1-.66.18-.92.18-.25 0-.7.2-.99.44-.29.25-.6.45-.69.45-.09 0-.44-.24-.77-.54-.46-.4-.8-.53-1.32-.53-.4 0-.86-.12-1.05-.26-.31-.22-.32-.32-.13-1.12.2-.76.18-1.01-.12-1.95-.38-1.2-.3-1.17-2.18-.86-1.3.2-1.35.25-1.7 1.31-.26.79-.36.9-.8.9-.8 0-1.56-.35-1.82-.83-.39-.73-.82-.87-1.37-.44-.38.3-.72.37-1.86.37-1.53 0-1.66-.09-1.4-.99.08-.3.15-.93.15-1.4 0-.77-.06-.9-.53-1.17-.29-.16-.75-.7-1.04-1.2-.28-.5-.64-.93-.8-.96-.16-.03-.67.28-1.14.69a4.2 4.2 0 0 1-1.38.84c-.29.06-.65.29-.8.51-.3.46-.37 1.76-.16 2.9.12.67.1.75-.26.87-.21.07-.9.02-1.51-.1-1-.2-1.18-.19-1.6.08-.58.4-1.01.2-1.54-.7-.47-.8-1.2-1.17-1.53-.8-.13.14-.34.72-.46 1.28-.28 1.32-.53 1.53-1.5 1.28-.86-.23-1.15-.15-1.31.34-.06.2-.4.48-.74.62-.34.14-.95.5-1.36.8-1.2.86-1.4.76-1.4-.78-.01-1.37-.34-2.62-.76-2.85-.14-.08-.4-.47-.58-.87-.18-.4-.38-.74-.44-.74l-1.56-.05c-1.41-.03-1.48-.05-2.2-.7-1.36-1.23-2.54-.68-2.54 1.16 0 1.02-.64 2.27-1.47 2.88-.6.45-.64.82-.15 1.62.2.32.36.84.36 1.16 0 .8.81 1.68 2.15 2.31 1.08.52 1.33.76 1.11 1.1-.14.24-2.3 1.4-2.86 1.54-.25.06-.49.33-.6.65-.24.7-.7.85-1.42.47a2 2 0 0 0-.96-.23c-.32.05-.38.16-.36.68.01.35.08.84.15 1.1.1.38-.01.65-.54 1.35-.37.49-.74.9-.84.94-.09.04-.5-.16-.89-.44-.68-.47-.77-.48-1.52-.28a7.5 7.5 0 0 1-1.6.21c-.92 0-.97.12-.53 1.18.16.38.25.9.2 1.17-.12.55.07.84.91 1.4.73.5.74.89.05 1.55-.3.29-.54.65-.54.8-.01.64-.34.82-1.64.91-1.07.08-1.33.16-1.55.5-.25.37-.22.44.65 1.33 1.22 1.24 1.2 1.54-.19 2.2-.84.4-.91.64-.49 1.67.2.5.2.62-.05.9-.29.33-.43 1.19-.6 3.74-.17 2.31-.24 2.6-.64 2.6-.23 0-.56-.33-.97-.96-.85-1.34-2.12-2.56-2.92-2.82-.38-.12-.9-.38-1.17-.57-.4-.28-.67-.32-1.44-.23-.89.11-.98.08-1.47-.44-.67-.7-.98-.7-1.64 0-.58.61-1.5 1.07-2.16 1.07-.23 0-.72-.2-1.09-.45-1.3-.88-2.05-.33-2.05 1.5 0 1.2-.1 1.42-.9 1.83-.57.29-.72.48-.8 1.03-.18 1-.63 2.36-.84 2.49-.1.06-.78.12-1.51.14l-1.33.02-.8.9c-1.16 1.27-1.18 1.5-.28 2.63 1 1.28 1.4 1.47 2.7 1.32.96-.11 1.06-.09 1.3.3.23.38.46 1.15.74 2.49.06.29.39.62.91.94.45.27.82.6.82.72.08 2.43.1 2.5.43 2.75.4.3 1.01.2 1.83-.3.31-.19.73-.34.94-.34.68 0 1.76.55 2.17 1.09.5.67.8.67 1.6-.03.51-.45.73-.53 1.18-.44.89.18 1.2.14 1.55-.17.18-.16.62-.37 1-.47.82-.23 2.22-1.51 3.17-2.9.44-.65.83-1.03 1.04-1.03.4 0 .46.3.63 2.6.16 2.2.36 3.38.64 3.82.23.36.22.48-.08 1.03-.43.8-.3 1.11.67 1.52 1.25.54 1.26 1 .05 2.16-1.13 1.09-.76 1.81.92 1.81.9 0 1.67.37 1.67.81 0 .14.24.53.54.87.7.8.68 1.08-.1 1.56-.76.47-.98.84-.86 1.47.06.27-.03.86-.18 1.31-.32.93-.35.9 1.05 1.06.5.06 1.15.15 1.45.21.43.09.67.01 1.1-.35.3-.26.67-.47.8-.47.14 0 .57.37.95.83l.69.83-.24.97c-.2.87-.2 1.02.07 1.28.27.28.34.28.93 0 .95-.46 1.31-.4 1.63.27.23.47.59.73 1.8 1.29 2.14.98 2.27 1.44.61 2.1-.34.13-.97.56-1.39.94-.61.57-.76.83-.76 1.32 0 .34-.16.93-.36 1.32-.47.9-.46 1.15.06 1.5.23.14.69.68 1 1.18.46.7.57 1.05.5 1.5-.1.65.2 1.53.65 1.9.42.35 1.28.1 2.05-.57.6-.53.75-.57 2.1-.6l1.56-.05c.06 0 .26-.33.43-.72.18-.4.47-.85.65-1 .42-.39.77-1.91.65-2.82-.18-1.38.24-1.57 1.49-.66.42.3 1 .63 1.27.73.28.1.64.38.8.63.28.42.36.44 1.34.33.68-.08 1.09-.06 1.17.07.06.1.19.65.28 1.22.28 1.73.99 1.93 1.92.55.73-1.06.98-1.17 1.74-.76.55.3.72.3 1.24.12.83-.3 1.66-.27 1.93.06.18.22.19.48.03 1.21-.22 1.05-.04 2.42.35 2.67.13.08.44.15.68.16.26 0 .77.32 1.3.82.5.47 1.01.8 1.2.76.16-.03.51-.45.77-.92.25-.48.73-1.03 1.06-1.23l.59-.36-.11-1.6a5.1 5.1 0 0 1 .02-1.62l1.39-.07c1.09-.04 1.32 0 1.75.37.6.5.9.42 1.36-.36.26-.44.56-.64 1.18-.82.97-.27 1.18-.16 1.53.84.34.94.52 1.13 1.12 1.13.28 0 .83.13 1.23.29.39.16.8.25.93.22.25-.1.73-1.65.73-2.4 0-.3-.06-.76-.13-1.03-.19-.72.16-1.03 1.16-1.03.7 0 .93-.1 1.36-.54.6-.64.95-.67 1.59-.17.47.37 2.36.79 2.68.59.1-.07.13-.66.05-1.51l-.12-1.4.96-.64c.88-.6 1-.63 1.64-.45.37.1.93.16 1.25.13l.58-.06-.06-1.17c-.05-1.06-.01-1.2.4-1.6.37-.34.63-.42 1.34-.4 1.1.04 1.36-.23 1.2-1.21-.1-.58-.06-.78.25-1.08.2-.21.6-.38.88-.38.65 0 .93-.3.93-1.01 0-.42.13-.68.5-.95.86-.65.93-.73 1.05-1.23.07-.27.31-.72.54-1 .24-.28.43-.64.43-.8 0-.15.43-1.1.96-2.1a21.3 21.3 0 0 0 2.29-6.15c.61-2.52.84-3.12 1.16-3.12.33 0 .4.52.52 3.5.14 3.27.6 7.5.9 8.37.15.4.18.78.08 1.04-.1.27-.06.6.15 1.03.28.6.28.67-.02 1.18-.3.5-.3.58-.04.97.15.23.44.47.63.53.54.18.58.59.1 1.16-.7.83-.57 1.17.68 1.8.41.2.6.43.64.78.05.42-.06.57-.75.99-.88.53-1.03.96-.53 1.51.19.22.54.33 1 .33 1.98 0 2.11 2.45.16 3.03-.92.27-1.12.78-.55 1.4.23.23.61.43.86.43s.92.1 1.49.2c.98.21 1.04.26 1.32.98.16.42.4.86.55.98.38.32.33.46-.36.86-.34.2-.74.61-.9.92-.17.33-.48.59-.77.66-.82.19-1.3.58-1.3 1.06 0 .58.49.81 1.64.76.77-.03 1.08.05 1.53.38.56.42.58.43 1.38.12.44-.17.9-.26 1-.2.25.16.25.83.02 1.45-.23.6.03 1.13.61 1.28.24.06.62.3.85.55.56.6.3.97-.94 1.32l-.97.29-.1.89c-.12 1.25-.66 2.1-1.48 2.32-.84.24-1.1.5-.94.98.14.44.84.5 1.17.1.28-.33.72-.33 1.94 0 .6.15 1.09.41 1.32.7.2.26.46.47.59.47.12 0 .7-.36 1.26-.8.58-.45 1.14-.81 1.25-.81.11 0 .43.5.7 1.1l.5 1.12-.46.68c-.51.78-.57 1.27-.18 1.59.25.2.58.19 1.74-.1.42-.1.52-.04.8.49.16.33.63.89 1.04 1.25.62.55.7.69.5.93-.13.15-.56.33-.97.4-.45.08-.98.35-1.38.72-.37.33-.89.65-1.15.72-.7.18-.76.4-.24.9.67.61.64 1.6-.07 2.5-.3.38-.54.86-.55 1.07 0 .2-.12.58-.26.83-.37.64-.34.71.33.71.34 0 .87.1 1.19.2.47.17.7.15 1.26-.1 1.14-.51 2.07-.13 2.5 1.02.23.6.53.52 1.1-.24.22-.3.68-.66 1.01-.8.48-.2.74-.5 1.11-1.28a3.3 3.3 0 0 1 .7-1.09c.39-.12 1.32 1.38 1.32 2.13 0 .84.38 1.24 1.16 1.24.87 0 1.13.4.75 1.19-.16.34-.3.73-.3.86s-.24.6-.53 1.03c-.63.93-.67 1.29-.18 1.78.48.48 1.11.45 1.75-.08a7.47 7.47 0 0 1 2.43-1.13c.62-.2.89.28.76 1.39-.15 1.31.11 1.6 1.23 1.3.7-.2.78-.17 1.29.3a11 11 0 0 0 1.72 1.15c1.9 1.04 2.03 1.43.57 1.64-1.3.18-2.55.63-2.74 1-.1.17-.46.49-.8.7-.55.3-.64.46-.64 1.01 0 .72-.54 1.36-1.58 1.92-.78.42-.73.82.23 1.76.67.66.8.91.8 1.45 0 .46.17.86.55 1.34.3.37.54.73.54.8 0 .08-.24.44-.53.8-.73.92-.76 1.1-.4 2.44l.31 1.17h2.8l.66-.77c.7-.82 1.21-.95 2.1-.55.34.16.62.16 1.12 0 .61-.18.77-.15 1.69.33 1.26.65 1.55.51 1.71-.85.12-1.01.44-1.43 1.26-1.64.38-.1.63-.37 1-1.11.45-.88.5-1.12.42-2.33-.05-.74-.14-1.65-.2-2.02-.09-.47-.06-.68.09-.68a7.6 7.6 0 0 1 2.17 1.64c0 .08.32.32.72.52.55.28.72.47.72.82 0 1.05.6 1.4 1.69.99.9-.35 1.27.62.72 1.92-.3.73-.23 1.3.2 1.74.49.48.95.32 2-.7a4.71 4.71 0 0 1 1.23-1c.13 0 .48.25.77.54.45.44.63.51 1.16.43.67-.11 1.4.16 1.4.52 0 .13-.37.75-.82 1.4-.9 1.3-1.01 1.88-.4 2.07.7.21 1.03.64 1.03 1.32 0 .54.59 2.45.82 2.7.07.06.66-.39 2.06-1.58.6-.51.8-.59 1.32-.5.4.08.67.04.78-.1.2-.28.6-1.96.6-2.59 0-.99 1.28-.54 1.98.7.35.62.45.7.91.6 1.76-.37 1.6-.4 1.6.36 0 .46.16.94.47 1.4.4.57.45.8.35 1.46-.1.65-.06.85.25 1.15.64.64 1.14.38 1.67-.89.15-.34.48-.87.74-1.16.26-.3.47-.6.47-.67 0-.06.12-.24.27-.38.2-.21.4-.23.98-.09.93.24 1.3.67 1.4 1.68.18 1.5 1.39 1.74 1.85.36.25-.78.82-1.23 1.26-1 .18.1.48.46.69.8.46.8 1.13.87 1.57.2.34-.52.72-.57 1.27-.19.32.22 1 .26 3.86.2 4.9-.08 5.26.15 2.4 1.51-1.7.82-4.07 2.88-4.4 3.83a2.2 2.2 0 0 1-.8.97c-.56.37-.63.5-.68 1.35-.05.94-.06.96-.9 1.36-.47.22-.86.52-.86.66 0 .13.19.64.42 1.13.28.62.38 1.12.33 1.65-.06.68-.15.8-1.04 1.37-.71.46-.97.73-.97 1.03 0 .48.9 1.4 1.71 1.77.48.22.55.37.63 1.17.08.71.22 1.03.67 1.48.83.84.92 1.28.34 1.72-1.37 1.07-1.38 1.08-1.58 2.22a3.77 3.77 0 0 0-.11 1.22c.05.05.64.3 1.3.53 1.3.47 1.48.45 2.83-.4l.49-.31 1.02 1.04c.79.81 1.03 1.2 1.1 1.75.15 1.05.45 1.2 1.44.73l.82-.4.66.46c.54.38.87.45 1.85.45 2.06 0 2.45.36 1.8 1.64-.36.7-.38 2.02-.06 3.26.22.84.26.88 1.56 1.48.73.33 1.33.69 1.33.78 0 .09.2.38.45.65.35.37.59.47 1.04.43.5-.05.64-.18 1.06-1.05ZM138.38 301.96c.53-.67.5-2.47-.03-3.04-.6-.64-1.34-.55-2.5.3-1.69 1.24-1.69 1.24-.96 1.74.25.18.73.55 1.05.82 1.11.92 1.82.97 2.44.18ZM376.87 146.4c.51-.52-.07-1.38-.76-1.12-.28.1-.4.97-.16 1.2.19.2.69.15.92-.09Z" stroke="#C9C9C9" stroke-width=".5"/><path d="M100.5 300.25a.25.25 0 0 0 0 .5v-.5Zm34.16 0H100.5v.5h34.16v-.5Z" fill="#C9C9C9"/><path d="M190.65 300.5H139" stroke="#C9C9C9" stroke-width=".5"/></svg>
