<svg xmlns="http://www.w3.org/2000/svg" width="32" height="32" fill="none"><rect width="32" height="32" fill="#F369FF" rx="4"/><mask id="a" width="24" height="24" x="6.7" y="4" fill="#000" maskUnits="userSpaceOnUse"><path fill="#fff" d="M6.7 4h24v24h-24z"/><path d="M23.2 26v-.2h.1v-.4l.2-.1h.1l.1-.2V25H24l.1-.1v-.2H24V24.3l.1-.1V24l-.1-.1v-.1l-.1-.1-.4-.3-.1-.1H24.2v-.1h.1c.1.2.2.2.2 0l.1-.1h.2v.2h.2V23h.2l.1-.2h.1v.2h.1l.2.1h.1l.1-.2V22.5h.1l.1-.1H26.4v-.2h.1V22h.1l.3-.2v.4h.1l.1.1.2.1c0 .1 0 .1.1 0H27.7v-.1H28V21.6l-.1-.1-.1-.1h-.1l-.3-.1v-.2h.2V21l.2-.1v-.2h.4v-.2l-.1-.1v-.1l.1-.1V20h.7V19.6l-.1-.2H28.5V19c.2 0 .2-.1.1-.1v-.4h.2v-.1c.1-.1.1-.2 0-.2h-.2v-.4l-.1-.1.1-.2-.1-.1-.1-.1V17l-.2-.1v-.2l-.2-.2v-.1h-.1l-.1-.1-.4-.3-.1-.1.6-.5.1-.1.1-.1h.1v-.1l.1-.2c.1 0 .1-.1 0-.2v-.1h.1v-.2h.3v-.2h-.2v-.5H28.8v-.1c.1 0 .1 0 0-.2l-.2-.1V13h-.1v-.2s-.1-.2 0-.2h.2v-.1l.2-.2V12s-.2 0-.2-.2h-.2l-.2.1-.1-.1v-.2l-.2-.1h.1v-.2c.1-.1.1-.1 0-.1h-.2l-.1-.1V11h-.1v-.1l-.3-.3h.4v-.2h.2V9.6c.1-.1 0-.1 0-.1h-.4l-.2-.1h-.1l-.2.1-.1.1-.1.3v.1l-.2-.2-.1-.1h-.2v-.4h-.1l-.2.1H26l-.2-.1.1-.2V9c0-.1 0-.2-.1-.1H25.5v.2h-.1c0 .1-.1 0-.2 0 0 0 0-.1 0 0L25 9v-.2c0-.1 0-.2-.1 0h-.1l-.2.1v-.1l-.2-.1v.1h-.2c0-.1 0-.1 0 0h-.8v-.2l.4-.2.1-.2.1-.1v-.2l.1-.1v-.2l-.1-.2v-.1l.1-.2H24l-.1-.1v-.1l-.2-.1-.2-.1h-.2v-.1c.1-.1.2-.2.1-.3v-.1l-.1-.1c0-.1-.1-.1-.2 0h-.2v.4l-.2.1h-.2l-.1.1-.1.1-.1.1H21.8v.2c.1 0 .1.1 0 .2v.1l-.2.2.2.2v.4h.1v.1l.4.3.1.1h-.7c-.1.1-.2.1-.2 0h-.1v.1h-.1s-.1.1-.1 0H21v-.2.1l-.1.1V9c0 .1 0 .1-.1 0l-.1.1-.1.1-.1-.1v-.1h-.2l-.1-.2-.1.2c-.1.1-.1.1 0 .2v.2h-.5v.2h-.2v.2h-.1c-.1.1-.2.1-.1 0v-.2l-.1-.1-.1-.1v-.1H18.1v.5l-.1.1.1.2.3.2h.1l-.1.1-.1.1h-.2v.1l-.1.1H18c-.2-.2-.3 0-.2 0v.2c.1 0 .1 0 0 0v.2h-.1v.1h-.1V11l-.2-.1h-.2l-.2.1v.4h.1l.1.1h.1v.1l-.1.1H17V12h-.5c-.2 0-.1.1 0 .1v.2h.2v.4h-.5v.2h.2V13.2h-.2c-.1 0-.1.1 0 .2s0 .2 0 .2H16v.1s.1.1 0 .1V14.5l-.1.6-.1.3v-.2l-.3-.5v-.2h-.1v-.1l-.1-.1-.2-.2v-.1H15v-.1c0-.1 0-.2-.2-.1h-.2V13.3h-.5V13H13.9v.1h-.2s0-.1-.1 0h-.1c-.2 0-.2 0-.1-.1v-.2l-.2-.1H13v.3H12.3c0 .1 0 .2-.1.1h-.1v.1H12c0 .1 0 .1 0 0l-.1-.2V13h-.4c0-.2-.2-.1-.2 0v.2c-.1 0-.1 0 0 .1v.1l.1.2s.1 0 0 0l-.1.2c0 .1-.1.1-.2 0v.2l-.1.1h-.4V14.4c.1 0 .1 0 0 .1v.2h-.2v.1c.1 0 .1.1 0 .2V15.7h-.2l-.2-.3h-.2c-.1-.1-.2-.1-.2 0h-.2l-.2.1v.1l-.1.1-.1.2h-.2c-.2.2-.2.2 0 .3 0 0 0 .1.1 0l.1.1v.2h.1v.1l.1.2h.4c0 .1 0 .1.1 0h.2c.2 0 .3-.1.3-.2l.1-.1v.2l.1.3v.1c.1 0 .1.1 0 .2l.1.1.1.1c.1.1.1.2 0 .2V17.9h.4v.2h.2l.2.1c.1.1.1.1 0 .2h-.1v.2c-.1.1-.1.1 0 .2V19.2h.5v-.2l.1-.2c0-.1 0-.1.2 0h.2l.1.2s0 .1.2 0H13v.2h.1l.1.1h.2v-.4H13.7c0 .1 0 .1.1 0h.2v.1h.2l.1-.1v-.2h.5v-.2H15v-.2l.1-.1c.1 0 .2 0 .1-.1l.1-.1.1-.2h.1v-.1l.2-.2.1-.5.1-.2v.2a3.8 3.8 0 0 0 .1.7V18c.1 0 .1 0 0 .1l.1.1V18.5c.2 0 .2.2 0 .2v.1h.2l.1.2v.2h-.2c0 .1 0 .2.1.1h.1c0 .1 0 .1.1 0h.1v.2l.1.1v.1h-.1v.1l-.1.2h-.1.2l.1.1H17V20.4H17.3v.1l-.2.1c-.1.1-.1.1 0 .2v.1l-.1.1v.1h.2l.2.1h.1v-.2h.1l.1.1.1.1s.1 0 0 .1V21.6h.1l.2-.1c0 .2 0 .2.2.2l.2.1c.1 0 .1.1 0 .1h-.2v.2l-.2.2v.2l.1.1V22.9h.8v-.2h.1v-.4l.2.1.1.1s0 .1.2 0V22.8h.5v.1c-.1.1-.1.2 0 .2v.3l.2-.1h.1l.1-.3h.2v.1h.2v.4l.2-.1v-.1h.2c0 .2.1.2.2 0h.1c0 .1.1.1.1 0h.4c.4 0 .4 0 .2.2l-.3.3-.1.1-.1.1v.4h-.2l.2.2v.2c.1 0 .1.1 0 .1V25.1h.3l.2.2H22.7c.2 0 .2.1.2.2v.4h.2v.1h.2Z"/></mask><path fill="#000" d="M23.2 26v-.2h.1v-.4l.2-.1h.1l.1-.2V25H24l.1-.1v-.2H24V24.3l.1-.1V24l-.1-.1v-.1l-.1-.1-.4-.3-.1-.1H24.2v-.1h.1c.1.2.2.2.2 0l.1-.1h.2v.2h.2V23h.2l.1-.2h.1v.2h.1l.2.1h.1l.1-.2V22.5h.1l.1-.1H26.4v-.2h.1V22h.1l.3-.2v.4h.1l.1.1.2.1c0 .1 0 .1.1 0H27.7v-.1H28V21.6l-.1-.1-.1-.1h-.1l-.3-.1v-.2h.2V21l.2-.1v-.2h.4v-.2l-.1-.1v-.1l.1-.1V20h.7V19.6l-.1-.2H28.5V19c.2 0 .2-.1.1-.1v-.4h.2v-.1c.1-.1.1-.2 0-.2h-.2v-.4l-.1-.1.1-.2-.1-.1-.1-.1V17l-.2-.1v-.2l-.2-.2v-.1h-.1l-.1-.1-.4-.3-.1-.1.6-.5.1-.1.1-.1h.1v-.1l.1-.2c.1 0 .1-.1 0-.2v-.1h.1v-.2h.3v-.2h-.2v-.5H28.8v-.1c.1 0 .1 0 0-.2l-.2-.1V13h-.1v-.2s-.1-.2 0-.2h.2v-.1l.2-.2V12s-.2 0-.2-.2h-.2l-.2.1-.1-.1v-.2l-.2-.1h.1v-.2c.1-.1.1-.1 0-.1h-.2l-.1-.1V11h-.1v-.1l-.3-.3h.4v-.2h.2V9.6c.1-.1 0-.1 0-.1h-.4l-.2-.1h-.1l-.2.1-.1.1-.1.3v.1l-.2-.2-.1-.1h-.2v-.4h-.1l-.2.1H26l-.2-.1.1-.2V9c0-.1 0-.2-.1-.1H25.5v.2h-.1c0 .1-.1 0-.2 0 0 0 0-.1 0 0L25 9v-.2c0-.1 0-.2-.1 0h-.1l-.2.1v-.1l-.2-.1v.1h-.2c0-.1 0-.1 0 0h-.8v-.2l.4-.2.1-.2.1-.1v-.2l.1-.1v-.2l-.1-.2v-.1l.1-.2H24l-.1-.1v-.1l-.2-.1-.2-.1h-.2v-.1c.1-.1.2-.2.1-.3v-.1l-.1-.1c0-.1-.1-.1-.2 0h-.2v.4l-.2.1h-.2l-.1.1-.1.1-.1.1H21.8v.2c.1 0 .1.1 0 .2v.1l-.2.2.2.2v.4h.1v.1l.4.3.1.1h-.7c-.1.1-.2.1-.2 0h-.1v.1h-.1s-.1.1-.1 0H21v-.2.1l-.1.1V9c0 .1 0 .1-.1 0l-.1.1-.1.1-.1-.1v-.1h-.2l-.1-.2-.1.2c-.1.1-.1.1 0 .2v.2h-.5v.2h-.2v.2h-.1c-.1.1-.2.1-.1 0v-.2l-.1-.1-.1-.1v-.1H18.1v.5l-.1.1.1.2.3.2h.1l-.1.1-.1.1h-.2v.1l-.1.1H18c-.2-.2-.3 0-.2 0v.2c.1 0 .1 0 0 0v.2h-.1v.1h-.1V11l-.2-.1h-.2l-.2.1v.4h.1l.1.1h.1v.1l-.1.1H17V12h-.5c-.2 0-.1.1 0 .1v.2h.2v.4h-.5v.2h.2V13.2h-.2c-.1 0-.1.1 0 .2s0 .2 0 .2H16v.1s.1.1 0 .1V14.5l-.1.6-.1.3v-.2l-.3-.5v-.2h-.1v-.1l-.1-.1-.2-.2v-.1H15v-.1c0-.1 0-.2-.2-.1h-.2V13.3h-.5V13H13.9v.1h-.2s0-.1-.1 0h-.1c-.2 0-.2 0-.1-.1v-.2l-.2-.1H13v.3H12.3c0 .1 0 .2-.1.1h-.1v.1H12c0 .1 0 .1 0 0l-.1-.2V13h-.4c0-.2-.2-.1-.2 0v.2c-.1 0-.1 0 0 .1v.1l.1.2s.1 0 0 0l-.1.2c0 .1-.1.1-.2 0v.2l-.1.1h-.4V14.4c.1 0 .1 0 0 .1v.2h-.2v.1c.1 0 .1.1 0 .2V15.7h-.2l-.2-.3h-.2c-.1-.1-.2-.1-.2 0h-.2l-.2.1v.1l-.1.1-.1.2h-.2c-.2.2-.2.2 0 .3 0 0 0 .1.1 0l.1.1v.2h.1v.1l.1.2h.4c0 .1 0 .1.1 0h.2c.2 0 .3-.1.3-.2l.1-.1v.2l.1.3v.1c.1 0 .1.1 0 .2l.1.1.1.1c.1.1.1.2 0 .2V17.9h.4v.2h.2l.2.1c.1.1.1.1 0 .2h-.1v.2c-.1.1-.1.1 0 .2V19.2h.5v-.2l.1-.2c0-.1 0-.1.2 0h.2l.1.2s0 .1.2 0H13v.2h.1l.1.1h.2v-.4H13.7c0 .1 0 .1.1 0h.2v.1h.2l.1-.1v-.2h.5v-.2H15v-.2l.1-.1c.1 0 .2 0 .1-.1l.1-.1.1-.2h.1v-.1l.2-.2.1-.5.1-.2v.2a3.8 3.8 0 0 0 .1.7V18c.1 0 .1 0 0 .1l.1.1V18.5c.2 0 .2.2 0 .2v.1h.2l.1.2v.2h-.2c0 .1 0 .2.1.1h.1c0 .1 0 .1.1 0h.1v.2l.1.1v.1h-.1v.1l-.1.2h-.1.2l.1.1H17V20.4H17.3v.1l-.2.1c-.1.1-.1.1 0 .2v.1l-.1.1v.1h.2l.2.1h.1v-.2h.1l.1.1.1.1s.1 0 0 .1V21.6h.1l.2-.1c0 .2 0 .2.2.2l.2.1c.1 0 .1.1 0 .1h-.2v.2l-.2.2v.2l.1.1V22.9h.8v-.2h.1v-.4l.2.1.1.1s0 .1.2 0V22.8h.5v.1c-.1.1-.1.2 0 .2v.3l.2-.1h.1l.1-.3h.2v.1h.2v.4l.2-.1v-.1h.2c0 .2.1.2.2 0h.1c0 .1.1.1.1 0h.4c.4 0 .4 0 .2.2l-.3.3-.1.1-.1.1v.4h-.2l.2.2v.2c.1 0 .1.1 0 .1V25.1h.3l.2.2H22.7c.2 0 .2.1.2.2v.4h.2v.1h.2Z"/><path stroke="#0FF" stroke-linejoin="round" stroke-width="3" d="M23.2 26v-.2h.1v-.4l.2-.1h.1l.1-.2V25H24l.1-.1v-.2H24V24.3l.1-.1V24l-.1-.1v-.1l-.1-.1-.4-.3-.1-.1H24.2v-.1h.1c.1.2.2.2.2 0l.1-.1h.2v.2h.2V23h.2l.1-.2h.1v.2h.1l.2.1h.1l.1-.2V22.5h.1l.1-.1H26.4v-.2h.1V22h.1l.3-.2v.4h.1l.1.1.2.1c0 .1 0 .1.1 0H27.7v-.1H28V21.6l-.1-.1-.1-.1h-.1l-.3-.1v-.2h.2V21l.2-.1v-.2h.4v-.2l-.1-.1v-.1l.1-.1V20h.7V19.6l-.1-.2H28.5V19c.2 0 .2-.1.1-.1v-.4h.2v-.1c.1-.1.1-.2 0-.2h-.2v-.4l-.1-.1.1-.2-.1-.1-.1-.1V17l-.2-.1v-.2l-.2-.2v-.1h-.1l-.1-.1-.4-.3-.1-.1.6-.5.1-.1.1-.1h.1v-.1l.1-.2c.1 0 .1-.1 0-.2v-.1h.1v-.2h.3v-.2h-.2v-.5H28.8v-.1c.1 0 .1 0 0-.2l-.2-.1V13h-.1v-.2s-.1-.2 0-.2h.2v-.1l.2-.2V12s-.2 0-.2-.2h-.2l-.2.1-.1-.1v-.2l-.2-.1h.1v-.2c.1-.1.1-.1 0-.1h-.2l-.1-.1V11h-.1v-.1l-.3-.3h.4v-.2h.2V9.6c.1-.1 0-.1 0-.1h-.4l-.2-.1h-.1l-.2.1-.1.1-.1.3v.1l-.2-.2-.1-.1h-.2v-.4h-.1l-.2.1H26l-.2-.1.1-.2V9c0-.1 0-.2-.1-.1H25.5v.2h-.1c0 .1-.1 0-.2 0 0 0 0-.1 0 0L25 9v-.2c0-.1 0-.2-.1 0h-.1l-.2.1v-.1l-.2-.1v.1h-.2c0-.1 0-.1 0 0h-.8v-.2l.4-.2.1-.2.1-.1v-.2l.1-.1v-.2l-.1-.2v-.1l.1-.2H24l-.1-.1v-.1l-.2-.1-.2-.1h-.2v-.1c.1-.1.2-.2.1-.3v-.1l-.1-.1c0-.1-.1-.1-.2 0h-.2v.4l-.2.1h-.2l-.1.1-.1.1-.1.1H21.8v.2c.1 0 .1.1 0 .2v.1l-.2.2.2.2v.4h.1v.1l.4.3.1.1h-.7c-.1.1-.2.1-.2 0h-.1v.1h-.1s-.1.1-.1 0H21v-.2.1l-.1.1V9c0 .1 0 .1-.1 0l-.1.1-.1.1-.1-.1v-.1h-.2l-.1-.2-.1.2c-.1.1-.1.1 0 .2v.2h-.5v.2h-.2v.2h-.1c-.1.1-.2.1-.1 0v-.2l-.1-.1-.1-.1v-.1H18.1v.5l-.1.1.1.2.3.2h.1l-.1.1-.1.1h-.2v.1l-.1.1H18c-.2-.2-.3 0-.2 0v.2c.1 0 .1 0 0 0v.2h-.1v.1h-.1V11l-.2-.1h-.2l-.2.1v.4h.1l.1.1h.1v.1l-.1.1H17V12h-.5c-.2 0-.1.1 0 .1v.2h.2v.4h-.5v.2h.2V13.2h-.2c-.1 0-.1.1 0 .2s0 .2 0 .2H16v.1s.1.1 0 .1V14.5l-.1.6-.1.3v-.2l-.3-.5v-.2h-.1v-.1l-.1-.1-.2-.2v-.1H15v-.1c0-.1 0-.2-.2-.1h-.2V13.3h-.5V13H13.9v.1h-.2s0-.1-.1 0h-.1c-.2 0-.2 0-.1-.1v-.2l-.2-.1H13v.3H12.3c0 .1 0 .2-.1.1h-.1v.1H12c0 .1 0 .1 0 0l-.1-.2V13h-.4c0-.2-.2-.1-.2 0v.2c-.1 0-.1 0 0 .1v.1l.1.2s.1 0 0 0l-.1.2c0 .1-.1.1-.2 0v.2l-.1.1h-.4V14.4c.1 0 .1 0 0 .1v.2h-.2v.1c.1 0 .1.1 0 .2V15.7h-.2l-.2-.3h-.2c-.1-.1-.2-.1-.2 0h-.2l-.2.1v.1l-.1.1-.1.2h-.2c-.2.2-.2.2 0 .3 0 0 0 .1.1 0l.1.1v.2h.1v.1l.1.2h.4c0 .1 0 .1.1 0h.2c.2 0 .3-.1.3-.2l.1-.1v.2l.1.3v.1c.1 0 .1.1 0 .2l.1.1.1.1c.1.1.1.2 0 .2V17.9h.4v.2h.2l.2.1c.1.1.1.1 0 .2h-.1v.2c-.1.1-.1.1 0 .2V19.2h.5v-.2l.1-.2c0-.1 0-.1.2 0h.2l.1.2s0 .1.2 0H13v.2h.1l.1.1h.2v-.4H13.7c0 .1 0 .1.1 0h.2v.1h.2l.1-.1v-.2h.5v-.2H15v-.2l.1-.1c.1 0 .2 0 .1-.1l.1-.1.1-.2h.1v-.1l.2-.2.1-.5.1-.2v.2a3.8 3.8 0 0 0 .1.7V18c.1 0 .1 0 0 .1l.1.1V18.5c.2 0 .2.2 0 .2v.1h.2l.1.2v.2h-.2c0 .1 0 .2.1.1h.1c0 .1 0 .1.1 0h.1v.2l.1.1v.1h-.1v.1l-.1.2h-.1.2l.1.1H17V20.4H17.3v.1l-.2.1c-.1.1-.1.1 0 .2v.1l-.1.1v.1h.2l.2.1h.1v-.2h.1l.1.1.1.1s.1 0 0 .1V21.6h.1l.2-.1c0 .2 0 .2.2.2l.2.1c.1 0 .1.1 0 .1h-.2v.2l-.2.2v.2l.1.1V22.9h.8v-.2h.1v-.4l.2.1.1.1s0 .1.2 0V22.8h.5v.1c-.1.1-.1.2 0 .2v.3l.2-.1h.1l.1-.3h.2v.1h.2v.4l.2-.1v-.1h.2c0 .2.1.2.2 0h.1c0 .1.1.1.1 0h.4c.4 0 .4 0 .2.2l-.3.3-.1.1-.1.1v.4h-.2l.2.2v.2c.1 0 .1.1 0 .1V25.1h.3l.2.2H22.7c.2 0 .2.1.2.2v.4h.2v.1h.2Z" mask="url(#a)"/><path fill="#0FF" d="M2 15.3a.8.8 0 0 0 0 1.5v-1.5Zm6 0H2v1.5h6v-1.5Z"/></svg>
