<svg xmlns="http://www.w3.org/2000/svg" fill="none" viewBox="0 0 800 600"><path stroke="#000" stroke-width=".5" d="M376.8 455.5c.2-.1.3-.4.3-.6 0-.4-.2-.5-.6-.5-.7 0-1 .7-.6 1.1.4.3.5.3.9 0ZM384.8 433.3c.4-.7.8-1.1 1.4-1.6l1-.6V430c.2-1.4 0-2.1-.9-3-.8-1-.6-1.3 1.6-1.7 1-.3 1.4-.4 1.7-.8.3-.4.4-.5 1.2-.4 1 .2 1.4-.1 1.4-1.1 0-.4.1-.8.3-1l.6-.8c.5-.8.7-.9 2-.3.5.2.6.2 1.5-.3.6-.3 1-.7 1.1-.8 0-.2 0-.7-.2-1.2-.2-.8-.4-1-1-1.4-.6-.3-.7-.5-.7-1 0-.3.1-.7.3-1l.2-1.3c0-.7 0-.8.6-1.2a3 3 0 0 0 1-1l.3-.6-.6-.5c-1.5-1.3-1.5-1.2-1.4-2.2l.2-1.4c0-.3-.2-.6-.8-1-.6-.4-.7-.6-.7-1.1 0-.5-.2-.8-.6-1.2l-.8-1a13 13 0 0 0-4.2-3.4c-.9-.4-1.6-.8-1.7-1-.2-.3.7-.3 4.4-.3s3.8 0 4.2-.3c.5-.5.7-.5 1.3.1l.7.6c.3 0 .7-.5.9-1 0-.3.3-.6.6-.7.3-.2.5-.1.8.2.3.3.6.7.7 1.1.3 1.4 1.4 1 1.8-.6.2-1 .4-1.3 1.4-1.7 1-.4 1.1-.3 1.4.2.1.3.6.7 1 1 .4.3.8.7 1 1.2.6 1.3 1.5 1 1.3-.5 0-.5 0-.8.4-1.4.5-.7.5-.8.3-1.5-.2-.6-.2-.7.1-1 .5-.3.8-.3 1.4.2.7.4 1.3.2 1.4-.5l1-1.1c1.2-1 1.5-.8 1.5.4 0 .5.2 1.2.4 1.7l.5 1 1-.1c.8 0 1 0 1.7.5.4.3 1 .5 1.4.5.7 0 .9-.3 1-1.9 0-.8 0-1 .5-1.6l.5-.7c0-.2-1-1.8-1.3-2.2-.3-.2-.5-.5-.5-.6 0-.4 1-.7 2-.7.7 0 .8 0 1.1-.7.4-.8.8-1 1.2-.6l1 .5 1 .6c.3.2.7.4 1 .4.3 0 .7-.6.5-.8l-.4-1.6c-.4-1.3-.4-1.4 0-1.7.2-.3.4-.4.9-.3l1.2.2c.7 0 .7 0 .7-.8v-1c0-.1.3-.3.7-.4.3-.1.6-.4.7-.6.2-.4 2.5-2.9 2.8-2.9.1 0 .2.6.2 1.7 0 1.8.4 3.2 1.1 4 .3.1.5.5.6.8.2.7.4 1 1.1 1 1.1 0 1.6.3 2.2 1.4.6 1.3 1 1.3 2 .2.7-.7 1-.8 1.6-.8.5 0 1-.1 1.6-.6.5-.4 1-.6 1.2-.6l1 .5c.7.5.9.6 1.6.5.5 0 1.1-.2 1.4-.4.5-.2.5-.3.4-1.4 0-1.4-.2-1.6-1.1-2.2-.8-.5-.9-.8-.4-1.8.2-.4.2-1 .1-1.5 0-.7 0-1 .4-1.6l.4-1c0-.3-.5-.7-1-.7-.6 0-1.3-.7-1.5-1.4-.1-.6-.3-.8-.8-1l-1.3-.6c-.9-.5-2.6-.8-3.5-.7-1.2.2-1-.2.6-1.8.8-.8 1.7-1.5 1.8-1.5.4 0 .7-.5.7-1.1 0-.7.4-1 1.3-.7 1.3.3 1.6-.1 1-1.2-.4-1-.4-1.4.1-2 .4-.6.5-.6 1.1-.4.6.2.9.2 1.2 0l1.4-.2 1-.1c0-.1 0-.6-.3-1l-.5-1.2-.7-.9-.8-.7.4-.6c.3-.5.4-.6 1.2-.7.7 0 1.2-.3 1.2-.7l-.4-.6c-.4-.5-.4-1 0-1.5l.2-1.1c0-.4.1-.9.3-1.1l.4-.4.6.6c.9 1 1.8 1.4 3.4 1.4l1.4.1.4-.6c.6-1 1.2-1.6 2-1.8.8-.2 1.7-1 1.7-1.5 0-.3-.8-1-1.4-1.4-.5-.2-1.3-1.6-1.3-2.2 0-.4-.3-.6-1.5-1-.9-.1-1.5-.2-2.2-.1-1 .1-1.1.1-1.1-.3 0-.5.7-2.3 1-2.5.2-.2.2-.4.1-1.1v-.9l1-.4c1-.5 1.3-.9.8-1.3-1.5-1.2-1.5-1.2-1.4-1.6l.2-1.7c0-1.3 0-1.4.4-1.3 1.9.2 3-.1 3.2-1 0-.3.3-.8.6-1.2.8-1 .8-1.4-.1-1.8-.4-.2-1-.6-1.2-.9-.5-.5-.6-.5-1.7-.4H457l-.2-1c-.1-.9 0-1 .3-1.6.4-.6.4-1 0-1.3-.5-.3-1-1.7-.8-2l.9-.5c.7-.3.8-.4 1-1.3l.3-1.2c0-.3-1.4-.9-2.3-.9-1 0-1.4-.3-1.2-1.2 0-.3 0-.7-.3-1-.4-.7-.4-1 .1-1.6.5-.6.6-1.7.3-2-.2-.2-.6-.3-1-.3-.9 0-1.2-.2-1.6-1-.2-.7-.2-1-.1-1.5l.2-.8c0-.2-.6-.6-1-.6-.7 0-1.3-.7-1.4-1.6-.1-.6-.2-.8-.8-1-.4-.3-.8-.6-1-1l-.5-.8a28.3 28.3 0 0 0-6.7-4.6c-1-.4-1.4-.7-1.4-1 0-.1.6-.5 1.7-1 2.9-1.6 6.3-4.2 7-5.4l.8-.8c.8-.3 1-.6 1-1.3 0-.6.6-1.3 1.2-1.3.3 0 .6-.1.8-.3.3-.2.3-.3.1-1.1-.4-1.5.3-2.6 1.5-2.6 1.4 0 1.8-1 .8-2.3-.4-.6-.4-1 0-1.5.2-.2.3-.6.3-1 0-1 .3-1.4 1.2-1.3 1 0 2.3-.5 2.3-1 0-.6-.4-1.8-.6-2l-.8-.5c-.3 0-.6-.2-.7-.4-.2-.4 0-1.5.6-2 .5-.6.5-.6 0-1.2-.2-.4-.3-.7-.1-1.6v-1h1.3c1.1 0 1.2 0 1.8-.6.3-.3.8-.7 1.2-.8.7-.3.7-.9 0-1.8l-.7-1.2c-.2-.8-1-1-2.4-1H457V262.3c-.2-.2 0-.4.7-1 .6-.3 1-.7.9-.9 0-.1-.5-.5-1.1-.8l-1-.5v-1c.1-.7.1-1-.2-1.2-.4-.4-1.2-2.2-1-2.5h1.2c.8 0 1.4 0 2.2-.2 1.3-.4 1.5-.5 1.6-1.2.2-1 .8-1.8 1.4-2.1a3 3 0 0 0 1-.8c.2-.4.3-.5 0-1-.2-.4-1-1-1.6-1-.4 0-1.5-1-2-2-.3-.6-.4-.7-.8-.5l-1.5.2c-1.2.2-1.6.4-2.7 1.3l-.8.8-.3-.4a2 2 0 0 1-.3-1.2c0-.4-.2-1-.4-1.3-.3-.5-.3-.5 0-1.2.6-.8.4-1.2-.6-1.4-.7-.1-1.3-.5-1.4-1-.1-.4.2-.8.8-1.1.2-.1.4-.5.4-.7l.6-1.3c.4-.8.4-.8-.5-1l-1.4-.3h-1.3c-.7.2-1 .1-1.4-.7l-.4-.7.4-.7c.6-1.3.3-1.7-.8-1.5-1 .2-1.4 0-1.4-.6 0-.7-.3-1.1-.8-1.2-.5-.2-3.1-2.7-3.1-3.1 0-.2.2-.3 1.2-.3 1.3 0 2.5-.3 4-1 .8-.3 1-.4 1.3-1.3.4-1 .4-1 1.2-1.2l1-.3c.4-.2.3-1-.2-1.6-.4-.5-.5-.7-.4-1.5.1-.5 0-1-.1-1.5-.5-1-.4-1.4.4-1.9 1-.6 1-.8 1.2-2 .1-1.2 0-1.4-1.3-1.8-1.1-.3-1.4-.3-2.3.5l-1 .5-1-.6c-.6-.5-1-.7-1.6-.7-.6 0-.8 0-1.5-.8-.6-.7-.8-.8-1.2-.8-.4 0-.6.3-1 1-.5 1-1.3 1.5-2.2 1.5-.7 0-1 .2-1.1 1 0 .2-.4.6-.7 1-.7.7-1 1.8-1 3.6 0 1.2 0 1.6-.3 1.6-.2 0-2.4-2.2-2.9-2.9-.1-.3-.4-.5-.5-.5-.5 0-.7-.3-.7-1.2 0-.9 0-1-.4-1-.3-.1-.6 0-.9.1-.6.4-1.2.4-1.6 0-.3-.3-.3-.4 0-1.5.5-2 .5-2.3.1-2.5-.2-.1-.5 0-1 .3l-1 .5-1 .5c-.6.4-1 .3-1.2-.3-.4-1-.5-1-1.3-1-.8.2-1.9-.2-1.9-.6 0-.2.2-.6.5-.9.6-.6 1.1-1.6 1.1-2l-.4-.6c-.3-.3-.4-.7-.5-1.8-.1-1.8-.3-2-1.2-1.8l-1.3.6c-.5.4-.7.5-1.5.4l-1-.1-.5 1.1-.6 1.8c0 .4 0 .7-.2.8-.3.2-2-1-2-1.7-.3-.7-.7-1-1.4-.5-1.2.6-2 .2-1.6-.9.2-.6.2-.7-.3-1.4-.3-.7-.4-1-.3-1.4.2-1.4-.9-1.7-1.5-.3-.3.5-.6.9-1 1-.5.3-.8.6-.9 1-.2.5-.3.6-1.4.2-.9-.3-1.2-.6-1.3-1.6-.2-.8-.8-1.7-1.3-1.5-.1 0-.4.3-.5.6-.3 1-.5 1.3-1 1.5-.5.2-.9 0-1.3-.7-.5-1-.8-1-1.5-.4l-.7.6-.7-.5c-.4-.4-.6-.4-1-.3h-7.3c-.5-.3-.3-.5 1.5-1.3 1.5-.8 2-1 3.6-2.8 1.7-1.7 1.9-2 2-2.7 0-.7.2-.8.9-1.2.7-.4.7-.5.6-1l-.2-1.4c-.1-1-.1-.9 1.5-2.2l.5-.4-.3-.7c-.2-.3-.6-.8-1-1-.5-.4-.6-.4-.6-1.2 0-.5 0-1.1-.2-1.4-.5-1-.4-1.4.4-2 .7-.4 1.4-1.8 1.2-2.3a4.8 4.8 0 0 0-2.1-1.4l-1 .3c-.8.3-1 .3-1.8-.8-.4-.6-.6-1-.6-1.5 0-.9-.4-1.2-1.3-1-.6 0-.8 0-1.3-.5-.4-.4-.9-.6-1.7-.8-1.2-.2-2-.6-2-.9l.5-.9c.9-1 1-1.6.8-4l-1-.7c-.8-.5-1-.9-1.3-1.5-.6-1.5-1.5-1.7-2.3-.4-.5.6-1.8 1.4-2.4 1.4-.3 0-.6.5-.9 1.5-.3 1.4-.3 2 .1 3 .7 1.3.6 1.4-1.6 1.6a4 4 0 0 0-1.8.4c-.6.4-1.2.4-1.7 0-.7-.5-1.3 0-1.3 1 0 .3-.3.8-1.1 1.5-.6.6-1.2 1-1.3 1a2 2 0 0 1-.6-.3c-.8-.7-1.2-.8-2.4-.3l-1.3.6v1.4c.3 1 .4 1.2 1 1.6 1 .7 1 1.1.2 2-.5.6-.6 1-.7 1.7 0 .7-.1.9-.6 1-.8.5-1.7 1.4-1.7 1.9 0 .3.2.5.6.7 1.1.6 1.3.9 1.4 1.8.1.7 0 1-.3 1.6-.3.4-.4 1-.4 1 0 .2.5.5 1 .7.8.3 1 .8.8 1.4-.1.6 0 1.2.6 1.4l.7.8c.4 1 2.7 3 4.5 3.9 1.7.7 2 1 1.8 1.2-.2.3-1.9.4-4.6.3-2.6-.1-3-.1-3.5.2l-.6.3-.7-.5c-.5-.5-.6-.6-1-.4-.2.1-.6.5-.7.8-.5 1-1.3.8-1.7-.5l-.6-.8c-.4 0-1 .3-1.2.7l-.2 1c-.2.6-.3.8-.8 1-.8.3-1.6.4-1.6.1l-.7-1c-.4-.4-.8-1-.8-1.3-.2-.8-.7-1.2-1.3-1-.4.2-.4.4-.4 1.2 0 .9 0 1.1-.4 1.6s-.5.7-.4 1.3c.1 1-.2 1.2-1 .7-.8-.3-1.3-.2-1.6.4-.3.6-1 1.2-1.5 1.2-.2 0-.3-.2-.4-.5l-.3-1.1-.2-1.2c-.1-.5-.2-.5-1-.4-.7.2-.8.1-1.4-.5a8.6 8.6 0 0 0-2-1.3s-.7 1.7-.8 2.5c0 .7-.1.8-.7 1-1 .3-1 .6-.5 1.4 1 1.6 1.4 2.2 1.4 2.4 0 .3-.8.6-1.4.4-.5 0-.7 0-1.2.5l-.6.6-.6-.4c-.3-.2-.8-.6-1-1-.5-.5-1.2-.7-1.6-.4-.6.2-.6.7-.3 1.5.3.9.3 1.8 0 2.1-.4.4-.3.4-1.2.1-.9-.2-1.3 0-1.3.8 0 .5-.4 1-.7 1l-1.3 1c-1.3 1.1-1.8 1.3-1.7.5.3-1.3.4-3.1.1-3.8l-.4-1.2c-.2-.4-.3-.5-.9-.6-.7 0-1.2-.5-1.2-1.3s-.3-1.4-.7-1.4l-1.1.4c-.9.4-1.2.4-1.9.1-.3-.2-.5-.2-1 .1-.8.5-1.2.4-2-.5l-.7-.8H320c-1.5 0-1.5 0-1.8 1.4-.2 1-.1 1.2.4 2 .5.9.5 1.3 0 2-.3.4-.5.8-.5 1.2 0 .5-.1.8-.8 1.5l-.8 1.1c0 .2.4.5.9.8 1 .5 1.1.6 1.1 1.5 0 .6.2.8 1 1.5 1 .8 1.4 1 3.2 1.4.5 0 1 .2 1.1.3.2.3-.4.8-1.6 1.4a6 6 0 0 0-1.6 1.2l-.5.5-.7-.3c-.6-.2-.8-.2-1.1 0-.4.1-.4.2-.3 1.3.2 1.5 0 1.7-1.3 1.2l-1-.4c-.2 0-.5-.2-.8-.5-1.4-1.1-2.7.3-1.6 1.7.3.3.6 1 .8 1.5.4 1.2.2 1.6-.8 1.6-.9 0-1.1.2-1.1 1.2 0 .5-.1 1-.5 1.5-.3.4-.7.7-.8.7l-.6-1c-.4-.8-.7-1.1-1.2-1.4-.4-.2-.9-.6-1-1-.5-.7-1-.7-1.3 0-.2.8-1 1.2-1.8 1-1.3-.3-3.4 0-3.2.4l.1 1 .6 1.4c.8 1 .6 2.2-.4 2.5-.4.2 0 .7.7.8.5 0 .9.3 1.2.6.3.3.8.6 1.4.8l1 .5c0 .4-.2.7-.8 1-.3.3-.7.7-.8 1-.2.5-.2.5-1.3.4-1-.1-1.2 0-1.4.2-.2.3-.2.4.3 1.2l.5 1-.5 1-.7 1-1.3-.7c-1.1-.8-1.4-.9-2-.3-.2.4-.6.6-1.5.7-1 .3-1.2.2-1.7 0-.3-.3-.7-.4-.9-.3-.7.3-.3 1.5.6 1.5.8 0 1.7 1.1 1.7 2.1 0 .8 0 1 1.2 1.3 1.4.5 1.4 1.1 0 1.8l-.7.4v2.2h-.5c-.2 0-.7 0-1-.2-.5 0-.8 0-1.2.3-.5.4-.6.4-1.2.3-.9-.3-1.4 0-1.7.5-.3.6.1 1.1 1 1.3.5 0 .8.3 1.1.8l.8.8c.7.2.8.6.4 1.1l-.5 1c-.1.5-.3.6-1 .8l-1.6.2c-1.5 0-2 1.4-.7 1.8.7.2 1.5.8 1.7 1.3.3 1-.6 1.8-1.7 1.8-.6 0-1.3.5-1.3 1l.7.7c1 .6 1.2 1 .9 1.4l-.9.6c-.9.3-1 1-.4 1.7l.5.6-.7.6c-.6.5-.6.6-.5 1 .1.7.1 1.2-.1 2.6a76 76 0 0 0-1 8.8c-.2 3.7-.3 4.4-.8 4.1a13 13 0 0 1-.7-2.5c-.7-2.8-1.3-4.4-2.5-7l-1-2-.5-.9-.5-1s-.3-.4-.7-.6c-.6-.4-.8-.6-.8-1 0-.9-.2-1.2-1-1.3-1-.2-1.2-.5-1-1.5 0-1-.2-1.4-1.3-1.2-.7 0-.8 0-1.2-.4-.5-.4-.5-.5-.4-1.6.2-1.4 0-1.5-1.5-1.2-1 .2-1.1.2-2-.3l-.8-.5v-1.6c.1-1.7 0-1.9-1-1.6l-.8.2a2 2 0 0 0-1 .5l-.7.4-.8-.5c-.5-.4-.8-.6-1.3-.6-.4 0-.9 0-1-.2-.4-.2-.4-.3-.2-1.1s.2-1-.1-2c-.4-1.2-.3-1.1-2.2-.8-1.3.2-1.4.2-1.7 1.3-.3.8-.4.9-.8.9-.8 0-1.6-.4-1.8-.9-.4-.7-.8-.8-1.4-.4-.4.3-.7.4-1.9.4-1.5 0-1.6-.1-1.4-1l.2-1.4c0-.8 0-1-.5-1.2-.3-.2-.8-.7-1-1.2-.4-.5-.7-1-.9-1l-1.1.7-1.4.9c-.3 0-.6.3-.8.5-.3.5-.4 1.8-.2 2.9.2.7.1.7-.2.9l-1.5-.1c-1-.2-1.2-.2-1.6 0-.6.4-1 .2-1.6-.7-.4-.8-1.2-1.1-1.5-.8a4 4 0 0 0-.4 1.3c-.3 1.3-.6 1.6-1.5 1.3-1-.2-1.2-.2-1.4.3 0 .2-.4.5-.7.7l-1.4.8c-1.2.8-1.4.7-1.4-.8 0-1.4-.3-2.6-.7-2.9-.2 0-.4-.4-.6-.8l-.4-.8h-1.6c-1.4 0-1.5 0-2.2-.7-1.4-1.3-2.5-.7-2.5 1.1a4 4 0 0 1-1.5 3c-.6.4-.7.7-.2 1.5l.4 1.2c0 .8.8 1.7 2.1 2.3 1.1.5 1.4.8 1.2 1.1a13 13 0 0 1-2.9 1.5c-.2.1-.5.4-.6.7-.2.7-.7.8-1.4.5a2 2 0 0 0-1-.3c-.3 0-.4.2-.3.7l.1 1.1c.1.4 0 .7-.5 1.4l-.9.9-.9-.4c-.6-.5-.7-.5-1.5-.3l-1.6.2c-.9 0-1 .1-.5 1.2.2.3.2.9.2 1.1-.1.6 0 .9.9 1.4.7.5.7 1 0 1.6-.2.3-.5.6-.5.8 0 .6-.3.8-1.6.9-1.1 0-1.4.2-1.6.5-.2.4-.2.4.7 1.3 1.2 1.3 1.2 1.6-.2 2.2-.9.4-1 .7-.5 1.7.2.5.2.6 0 .9-.3.3-.5 1.2-.7 3.7-.1 2.3-.2 2.6-.6 2.6-.2 0-.6-.3-1-1-.8-1.3-2-2.5-2.9-2.7l-1.2-.6c-.4-.3-.6-.3-1.4-.2-.9 0-1 0-1.5-.5-.6-.7-1-.7-1.6 0-.6.6-1.5 1-2.2 1-.2 0-.7-.1-1-.4-1.4-.8-2.1-.3-2.1 1.5 0 1.2-.1 1.5-1 1.9-.5.3-.6.4-.7 1a7 7 0 0 1-.9 2.5l-1.5.1h-1.3l-.8 1c-1.1 1.2-1.2 1.4-.3 2.6 1 1.3 1.4 1.5 2.7 1.3 1-.1 1 0 1.3.3.3.4.5 1.2.8 2.5 0 .3.4.6.9 1l.8.6c0 2.5 0 2.6.4 2.8.4.3 1 .2 1.9-.3l.9-.3c.7 0 1.8.5 2.2 1 .5.7.8.7 1.6 0 .5-.4.7-.5 1.2-.4.8.2 1.2.1 1.5-.2a3 3 0 0 1 1-.5c.8-.2 2.2-1.5 3.2-2.9.4-.6.8-1 1-1 .4 0 .5.3.6 2.6.2 2.2.4 3.4.7 3.8.2.4.2.5-.1 1-.4.9-.3 1.2.7 1.6 1.2.5 1.2 1 0 2.1-1.1 1.1-.7 1.9 1 1.9.8 0 1.6.3 1.6.8l.5.8c.7.8.7 1.1 0 1.6-.8.5-1 .8-1 1.5v1.3c-.4.9-.4.9 1 1l1.4.2c.4.1.7 0 1.1-.3l.8-.5c.2 0 .6.4 1 .8l.7.9-.3 1c-.2.8-.2 1 0 1.2.4.3.4.3 1 0 1-.4 1.3-.4 1.6.3.3.5.6.7 1.8 1.3 2.2 1 2.3 1.4.7 2l-1.4 1c-.7.6-.8.9-.8 1.3s-.2 1-.4 1.4c-.4.9-.4 1.1.1 1.5.2.1.7.6 1 1.2.5.7.6 1 .5 1.4 0 .7.2 1.6.7 2 .4.3 1.2 0 2-.6.6-.5.8-.6 2.1-.6h1.6l.4-.8.6-1c.5-.4.8-1.9.7-2.8-.2-1.4.2-1.6 1.5-.7l1.3.8c.2 0 .6.3.8.6.2.4.3.4 1.3.3h1.2l.2 1.3c.3 1.7 1 2 2 .6.7-1.1 1-1.2 1.7-.8.6.3.7.3 1.2.1.9-.3 1.7-.3 2 0 .2.3.2.6 0 1.3-.2 1 0 2.4.4 2.7l.6.1c.3 0 .8.3 1.3.8s1 .8 1.2.8c.2 0 .5-.4.8-1 .3-.4.7-1 1-1.1l.7-.4-.2-1.6a5 5 0 0 1 0-1.6l1.4-.1c1.1 0 1.4 0 1.8.4.6.5.9.4 1.4-.4.2-.4.5-.6 1.1-.8 1-.3 1.2-.2 1.6.8.3 1 .5 1.2 1 1.2.4 0 1 0 1.3.2l1 .3c.2-.1.7-1.7.7-2.4l-.1-1c-.2-.8.1-1 1.1-1 .7 0 1-.2 1.4-.6.6-.7 1-.7 1.6-.2.4.4 2.3.8 2.6.6.1 0 .2-.7 0-1.5v-1.4l1-.7c.8-.6 1-.6 1.6-.4l1.2.1h.6v-1.2c-.1-1 0-1.2.3-1.6.4-.4.7-.4 1.4-.4 1 0 1.3-.2 1.2-1.2-.1-.6 0-.8.2-1.1.2-.2.6-.4 1-.4.6 0 .8-.3.8-1 0-.4.2-.7.5-1 .9-.6 1-.7 1-1.2l.6-1c.3-.3.5-.6.5-.8l1-2c1.1-2.3 1.5-3.4 2.2-6.2.6-2.5.8-3.1 1.2-3.1.3 0 .4.5.5 3.5a51.6 51.6 0 0 0 1 9.4c-.1.2 0 .6.1 1 .3.6.3.7 0 1.2s-.3.6 0 1l.6.5c.5.2.6.6 0 1.1-.6.9-.5 1.2.8 1.8.4.2.6.5.6.8 0 .4 0 .6-.7 1-1 .5-1 1-.6 1.5.2.2.6.4 1 .4 2 0 2.1 2.4.2 3-1 .3-1.1.8-.6 1.4l.9.4 1.5.2c1 .2 1 .3 1.3 1 .2.4.4.9.6 1 .3.3.3.4-.4.8-.3.2-.7.6-.9 1-.2.3-.5.5-.8.6-.8.2-1.3.6-1.3 1 0 .7.5.9 1.7.8.7 0 1 0 1.5.4.6.4.6.4 1.4.1l1-.2c.2.2.2.9 0 1.5s0 1.1.6 1.3c.3 0 .6.3.9.5.5.6.3 1-1 1.3l-1 .3v1c-.2 1.2-.7 2-1.5 2.2-.9.3-1.1.5-1 1 .2.5.9.5 1.2.1.3-.3.7-.3 2 0 .5.2 1 .4 1.3.7l.5.5c.2 0 .7-.4 1.3-.8.6-.5 1.1-.8 1.3-.8l.7 1 .5 1.2-.5.7c-.5.7-.6 1.2-.2 1.6.3.2.6.1 1.8-.1.4-.1.5 0 .8.4.1.4.6 1 1 1.3.6.6.7.7.5 1-.1 0-.6.3-1 .3a3 3 0 0 0-1.4.8l-1.1.7c-.7.1-.8.4-.2.9.6.6.6 1.6-.1 2.5-.3.4-.6.8-.6 1 0 .2 0 .6-.2.9-.4.6-.4.7.3.7.3 0 .9 0 1.2.2.5.1.7.1 1.3-.1 1.1-.5 2-.2 2.5 1 .2.6.5.5 1-.2.3-.3.7-.7 1-.8.5-.2.8-.5 1.2-1.3.2-.6.6-1 .7-1.1.4-.1 1.3 1.4 1.3 2.1 0 .9.4 1.3 1.2 1.3.8 0 1 .4.7 1.1l-.3 1-.5 1c-.7.9-.7 1.2-.2 1.7.5.5 1.1.5 1.7 0 .5-.4 1.3-.8 2.5-1.2.6-.2.9.3.7 1.4-.1 1.3.2 1.6 1.3 1.3.7-.2.7-.2 1.3.3.3.3 1 .8 1.7 1.1 1.9 1 2 1.5.6 1.7-1.4.2-2.6.6-2.8 1 0 .2-.4.5-.8.7-.5.3-.6.5-.6 1 0 .7-.6 1.4-1.6 2-.8.3-.7.7.2 1.7.7.6.8.9.8 1.4 0 .5.2.9.6 1.4l.5.8-.5.8c-.8.9-.8 1-.4 2.4l.3 1.2h2.8l.7-.8c.7-.8 1.2-1 2-.5h1.2c.6-.2.7-.2 1.7.3 1.2.6 1.5.5 1.7-.9 0-1 .4-1.4 1.2-1.6.4-.1.7-.4 1-1.1.5-.9.5-1.1.5-2.3 0-.8-.2-1.7-.3-2l.1-.7c.3 0 2.2 1.4 2.2 1.6l.7.5c.6.3.7.5.7.8 0 1 .7 1.4 1.7 1 1-.3 1.3.6.8 2-.3.7-.3 1.3.2 1.7.4.5 1 .3 2-.7.5-.6 1-1 1.2-1l.8.5c.4.5.6.5 1.1.5.7-.2 1.4.1 1.4.5l-.8 1.4c-.9 1.3-1 1.9-.4 2 .7.3 1 .7 1 1.4 0 .5.6 2.4.9 2.7l2-1.6c.6-.5.8-.6 1.3-.5l.8-.1c.2-.3.6-2 .6-2.6 0-1 1.3-.5 2 .7.3.6.4.7.9.6 1.8-.4 1.6-.4 1.6.4 0 .4.2.9.5 1.4.4.5.4.8.3 1.4 0 .7 0 .9.3 1.2.6.6 1.1.3 1.6-1 .2-.3.5-.8.8-1l.5-.7c0-.1 0-.3.2-.4.2-.2.4-.3 1-.1 1 .2 1.3.6 1.4 1.7.2 1.5 1.4 1.7 1.8.3.3-.8.9-1.2 1.3-1l.7.8c.5.8 1.1.9 1.6.2.3-.5.7-.6 1.2-.2.4.3 1 .3 3.9.2 4.9 0 5.3.2 2.4 1.5-1.7.9-4 3-4.4 3.9-.1.3-.5.7-.8 1-.6.3-.6.4-.7 1.3 0 1 0 1-.9 1.3-.5.3-.8.6-.8.7 0 .1.1.7.4 1.1.3.7.4 1.2.3 1.7 0 .7-.1.8-1 1.4-.7.4-1 .7-1 1 0 .5.9 1.4 1.7 1.8.5.2.6.3.6 1.1.1.7.3 1 .7 1.5.8.8 1 1.3.4 1.7-1.4 1.1-1.4 1.1-1.6 2.2-.1.7-.2 1.2-.1 1.3l1.3.5c1.3.5 1.4.4 2.8-.4l.5-.3 1 1c.8.8 1 1.2 1.1 1.8.1 1 .4 1.2 1.4.7l.9-.4.6.5c.6.3.9.4 1.9.4 2 0 2.4.4 1.8 1.7-.4.7-.4 2 0 3.2.1.9.2.9 1.5 1.5.7.3 1.3.7 1.3.8 0 0 .2.4.5.6.3.4.5.5 1 .5s.6-.2 1-1ZM138.4 302c.5-.7.5-2.5 0-3-.6-.7-1.4-.6-2.5.2-1.7 1.3-1.7 1.3-1 1.8l1 .8c1.2.9 1.9 1 2.5.2ZM376.9 146.4c.5-.5-.1-1.4-.8-1.1-.3 0-.4 1-.2 1.2.2.2.7.1 1-.1Z"/><path fill="#000" d="M100.5 300.3a.3.3 0 0 0 0 .4v-.4Zm34.2 0h-34.2v.4h34.2v-.4Z"/><path stroke="#000" stroke-width=".5" d="M190.7 300.5H139"/></svg>
